<?xml version="1.0" encoding="utf-8"?>
<!-- Generator: Adobe Illustrator 27.5.0, SVG Export Plug-In . SVG Version: 6.00 Build 0)  -->
<svg version="1.1" xmlns="http://www.w3.org/2000/svg" xmlns:xlink="http://www.w3.org/1999/xlink" x="0px" y="0px"
	 viewBox="0 0 500 500" style="enable-background:new 0 0 500 500;" xml:space="preserve">
<g id="BACKGROUND">
	<g>
		<rect style="fill:#83DDD5;" width="500" height="500"/>
	</g>
</g>
<g id="OBJECTS">
	<g>
		<g>
			<ellipse style="fill:#0EA89B;" cx="250" cy="316.826" rx="235.579" ry="58.408"/>
		</g>
		<g>
			<g>
				<g>
					<path style="fill:#07A89A;" d="M156.016,136.087c-0.484-0.701-0.984-1.443-1.57-2.064c-0.407-0.431-0.638-0.624-0.811-0.616
						c-0.247,0.011-0.374,0.43-0.72,1.144c-0.068,0.139-0.136,0.279-0.206,0.418c0.274,0.369,0.534,0.749,0.789,1.119
						c2.817,4.081,5.407,9.296,4.753,14.409c-0.358,2.796-2.515,5.227-5.133,5.838c3.632,0.859,7.182-2.178,7.65-5.838
						C161.423,145.382,158.833,140.168,156.016,136.087z"/>
					<path style="fill:#29B5A9;" d="M158.251,150.495c0.654-5.113-1.936-10.327-4.753-14.409c-0.255-0.369-0.515-0.75-0.789-1.119
						c-2.133,4.275-5.162,8.651-5.242,13.573c-0.05,3.084,1.812,6.209,4.663,7.463c0.329,0.144,0.659,0.251,0.988,0.329
						C155.736,155.723,157.894,153.291,158.251,150.495z"/>
				</g>
				
					<ellipse transform="matrix(0.2822 -0.9594 0.9594 0.2822 -29.9808 247.9514)" style="fill:#6CD6CD;" cx="150.7" cy="144.01" rx="4.532" ry="1.846"/>
			</g>
			<g>
				<g>
					<g>
						<path style="fill:#DDDCDA;" d="M142.928,189.131c11.67,10.87,18.971,26.369,18.971,43.575v61.762H49.877v9.788h126.161
							v-61.762C176.038,219.105,162.55,198.868,142.928,189.131z"/>
						<path style="fill:#FFFFFF;" d="M161.9,232.706c0-17.206-7.301-32.705-18.971-43.575c-7.965-3.953-16.938-6.179-26.432-6.179
							h-7.077c-32.884,0-59.542,26.658-59.542,59.542v51.973H161.9V232.706z"/>
					</g>
					<g>
						<g>
							<rect x="162.443" y="238.963" style="fill:#10BDAE;" width="8.429" height="44.048"/>
							<rect x="55.043" y="238.963" style="fill:#2DC5B8;" width="107.4" height="44.048"/>
						</g>
						<g>
							<path style="fill:#FFFFFF;" d="M86.523,249.544c-0.625-0.906-1.272-1.864-2.028-2.667c-0.525-0.557-0.825-0.806-1.048-0.796
								c-0.319,0.014-0.484,0.556-0.931,1.478c-0.087,0.18-0.176,0.36-0.266,0.54c-2.756,5.524-6.669,11.178-6.773,17.538
								c-0.065,3.985,2.341,8.022,6.025,9.642c0.424,0.187,0.851,0.325,1.277,0.425c4.693,1.109,9.28-2.814,9.885-7.543
								C93.51,261.555,90.163,254.817,86.523,249.544z"/>
							<path style="fill:#FFFFFF;" d="M115.345,249.544c-0.625-0.906-1.272-1.864-2.028-2.667c-0.525-0.557-0.825-0.806-1.048-0.796
								c-0.319,0.014-0.484,0.556-0.931,1.478c-0.087,0.18-0.176,0.36-0.266,0.54c-2.756,5.524-6.669,11.178-6.773,17.538
								c-0.065,3.985,2.341,8.022,6.025,9.642c0.424,0.187,0.851,0.325,1.277,0.425c4.693,1.109,9.28-2.814,9.885-7.543
								C122.331,261.555,118.984,254.817,115.345,249.544z"/>
							<path style="fill:#FFFFFF;" d="M144.166,249.544c-0.625-0.906-1.272-1.864-2.028-2.667c-0.525-0.557-0.825-0.806-1.048-0.796
								c-0.319,0.014-0.484,0.556-0.931,1.478c-0.087,0.18-0.176,0.36-0.266,0.54c-2.756,5.524-6.669,11.178-6.773,17.538
								c-0.065,3.985,2.341,8.022,6.025,9.642c0.424,0.187,0.851,0.325,1.277,0.425c4.693,1.109,9.28-2.814,9.885-7.543
								C151.152,261.555,147.806,254.817,144.166,249.544z"/>
						</g>
					</g>
				</g>
				<path style="fill:#FFFFFF;" d="M152.548,124.766h-37.867c-3.153,0-5.709,2.556-5.709,5.709v38.984H98.275
					c-3.604,0-6.526,2.922-6.526,6.526v10.674h43.504v-10.674c0-3.604-2.922-6.526-6.526-6.526h-11.341c0-3.999,0-7.997,0-11.996
					c0-4.466,0-8.933,0-13.399c0-3.267-1.453-9.203,2.832-10.538c4.978-1.551,10.333-1.476,15.486-1.213
					c5.439,0.278,10.89,0.756,16.232,1.848c1.867,0.382,3.615-1.037,3.615-2.942v-3.447
					C155.553,126.111,154.207,124.766,152.548,124.766z"/>
			</g>
		</g>
		<g>
			<g>
				<g>
					<path style="fill:#48CDC1;" d="M203.134,326.966c7.355,6.309,11.066,13.052,9.549,19.012
						c-3.335,13.095-30.646,17.443-61.002,9.713c-11.05-2.814-20.979-6.841-28.979-11.457c8.806,7.553,22.836,14.483,39.377,18.695
						c30.356,7.73,57.667,3.381,61.002-9.713C225.201,344.888,217.111,335.029,203.134,326.966z"/>
					<g>
						<path style="fill:#6CD6CD;" d="M212.682,345.977c1.518-5.959-2.194-12.703-9.549-19.012
							c-8.001-4.615-17.929-8.643-28.979-11.457c-30.356-7.73-57.667-3.381-61.002,9.713c-1.518,5.959,2.194,12.703,9.549,19.012
							c8.001,4.615,17.929,8.643,28.979,11.457C182.036,363.421,209.348,359.072,212.682,345.977z"/>
					</g>
				</g>
				<g>
					<g>
						<path style="fill:#07A89A;" d="M202.153,343.991c0.306-1.265,0.271-2.595-0.028-3.855c-0.293-1.265-0.848-2.456-1.538-3.549
							c-1.374-2.203-3.243-4.043-5.234-5.677l0.034,0.024c-3.056-1.647-6.256-3.011-9.533-4.123
							c-3.273-1.123-6.611-2.035-9.989-2.715c-6.746-1.389-13.627-1.986-20.352-1.724c-3.358,0.158-6.682,0.547-9.828,1.298
							c-3.111,0.75-6.154,1.921-8.154,3.674c-0.494,0.431-0.897,0.895-1.23,1.367c-0.299,0.484-0.537,0.971-0.671,1.486
							c-0.268,1.021-0.205,2.159,0.238,3.393c0.439,1.224,1.17,2.5,2.113,3.695c0.938,1.196,2.023,2.358,3.216,3.441l-0.409-0.289
							c4.627,2.819,9.627,5.216,14.835,7.121c5.2,1.942,10.606,3.453,16.13,4.387c5.519,0.894,11.195,1.284,16.783,0.503
							c2.781-0.404,5.552-1.101,8.078-2.373C199.118,348.844,201.41,346.775,202.153,343.991z M202.153,343.991
							c-0.353,1.376-1.103,2.63-2.077,3.66c-0.978,1.03-2.149,1.866-3.393,2.552c-2.511,1.341-5.262,2.205-8.054,2.765
							c-5.597,1.144-11.369,1.345-17.1,1.014c-5.742-0.311-11.46-1.223-17.086-2.622c-5.606-1.465-11.143-3.423-16.352-6.244
							l-0.164-0.089l-0.245-0.201c-1.447-1.186-2.846-2.485-4.095-4.001c-1.247-1.508-2.406-3.212-3.16-5.268
							c-0.365-1.03-0.659-2.127-0.745-3.303c-0.087-1.17,0.001-2.392,0.31-3.562c0.318-1.172,0.855-2.262,1.501-3.239
							c0.669-0.953,1.442-1.787,2.269-2.492c3.381-2.745,7.172-3.852,10.825-4.548c3.679-0.655,7.34-0.789,10.943-0.597
							c7.212,0.343,14.21,1.891,20.926,4.051c6.712,2.186,13.185,5.03,19.155,8.68l0.024,0.014l0.01,0.01
							c1.914,1.772,3.721,3.701,5.046,5.955c0.65,1.128,1.192,2.329,1.476,3.602C202.452,341.395,202.472,342.73,202.153,343.991z"
							/>
					</g>
				</g>
			</g>
			<g>
				
					<ellipse transform="matrix(0.078 -0.997 0.997 0.078 -208.6581 407.877)" style="fill:#FFFFFF;" cx="116.19" cy="316.75" rx="11.214" ry="12.111"/>
				<g>
					<path style="fill:#FFFFFF;" d="M105.905,315.945c1.313-4.268,4.817-8.767,9.679-8.691"/>
					<path style="fill:#10BDAE;" d="M105.905,315.945c0.326-2.332,1.454-4.567,3.141-6.294c0.856-0.85,1.864-1.577,3.002-2.017
						c1.129-0.448,2.376-0.602,3.535-0.38c-1.164,0.186-2.24,0.54-3.217,1.069c-0.972,0.535-1.852,1.22-2.631,2.014
						C108.157,311.919,106.963,313.856,105.905,315.945z"/>
				</g>
			</g>
			<g>
				
					<ellipse transform="matrix(0.9213 -0.3887 0.3887 0.9213 -110.5465 74.9539)" style="fill:#FFFFFF;" cx="129.959" cy="310.669" rx="7.551" ry="8.156"/>
				<g>
					<path style="fill:#FFFFFF;" d="M127.259,304.268c2.959-0.535,6.734,0.169,8.193,3.1"/>
					<path style="fill:#10BDAE;" d="M127.259,304.268c1.476-0.651,3.2-0.699,4.784-0.22c0.787,0.256,1.55,0.65,2.164,1.225
						c0.616,0.565,1.079,1.303,1.245,2.095c-1.043-1.227-2.292-1.958-3.701-2.392C130.345,304.526,128.855,304.38,127.259,304.268z"
						/>
				</g>
			</g>
		</g>
		<g>
			<path style="fill:#FFFFFF;" d="M329.272,356.826l-1.365-9.673c-0.31-2.194-2.141-3.75-4.09-3.475l-63.536,8.964
				c-1.949,0.275-3.279,2.277-2.969,4.471l-0.037-0.259c-0.838,2.937-11.313,6.353-11.313,6.353l0.049,0.345l0.024,0.173
				l0.049,0.345c0,0,11.011,0.384,12.628,2.975l-0.037-0.259c0.31,2.194,2.141,3.75,4.09,3.475l63.536-8.964
				C328.252,361.022,329.581,359.02,329.272,356.826z"/>
			<g>
				<path style="fill:#E6434D;" d="M322.556,356.673l-1.06-7.515c-0.241-1.705-1.817-2.892-3.522-2.651l-55.561,7.839
					c-1.705,0.241-2.892,1.817-2.651,3.522l-0.028-0.201c-0.771,2.299-9.957,5.1-9.957,5.1l0.038,0.268l0.019,0.134l0.038,0.268
					c0,0,9.603,0.151,10.979,2.147l-0.028-0.201c0.241,1.705,1.817,2.892,3.522,2.651l55.561-7.839
					C321.609,359.955,322.796,358.378,322.556,356.673z"/>
				<g>
					
						<line style="fill:none;stroke:#000000;stroke-width:0.2434;stroke-miterlimit:10;" x1="270.758" y1="369.133" x2="269.686" y2="361.533"/>
					
						<line style="fill:none;stroke:#000000;stroke-width:0.2434;stroke-miterlimit:10;" x1="272.578" y1="358.306" x2="271.505" y2="350.706"/>
					
						<line style="fill:none;stroke:#000000;stroke-width:0.2434;stroke-miterlimit:10;" x1="280.523" y1="357.185" x2="279.451" y2="349.585"/>
					
						<line style="fill:none;stroke:#000000;stroke-width:0.2434;stroke-miterlimit:10;" x1="288.124" y1="356.113" x2="287.051" y2="348.513"/>
					
						<line style="fill:none;stroke:#000000;stroke-width:0.2434;stroke-miterlimit:10;" x1="295.378" y1="355.089" x2="294.306" y2="347.489"/>
					
						<line style="fill:none;stroke:#000000;stroke-width:0.2434;stroke-miterlimit:10;" x1="302.288" y1="354.114" x2="301.215" y2="346.514"/>
					
						<line style="fill:none;stroke:#000000;stroke-width:0.2434;stroke-miterlimit:10;" x1="310.579" y1="352.945" x2="309.506" y2="345.345"/>
					
						<line style="fill:none;stroke:#000000;stroke-width:0.2434;stroke-miterlimit:10;" x1="317.488" y1="351.97" x2="316.416" y2="344.37"/>
					
						<line style="fill:none;stroke:#000000;stroke-width:0.2434;stroke-miterlimit:10;" x1="278.185" y1="368.085" x2="277.113" y2="360.485"/>
					
						<line style="fill:none;stroke:#000000;stroke-width:0.2434;stroke-miterlimit:10;" x1="285.613" y1="367.037" x2="284.541" y2="359.437"/>
					
						<line style="fill:none;stroke:#000000;stroke-width:0.2434;stroke-miterlimit:10;" x1="293.04" y1="365.989" x2="291.968" y2="358.389"/>
					
						<line style="fill:none;stroke:#000000;stroke-width:0.2434;stroke-miterlimit:10;" x1="300.468" y1="364.941" x2="299.396" y2="357.341"/>
					
						<line style="fill:none;stroke:#000000;stroke-width:0.2434;stroke-miterlimit:10;" x1="307.895" y1="363.893" x2="306.823" y2="356.293"/>
					
						<line style="fill:none;stroke:#000000;stroke-width:0.2434;stroke-miterlimit:10;" x1="315.323" y1="362.846" x2="314.251" y2="355.245"/>
					
						<line style="fill:none;stroke:#000000;stroke-width:0.2434;stroke-miterlimit:10;" x1="322.75" y1="361.798" x2="321.678" y2="354.198"/>
				</g>
			</g>
		</g>
		<g>
			<g>
				<g>
					<g>
						<g>
							
								<rect x="54.58" y="296.875" transform="matrix(0.4411 -0.8975 0.8975 0.4411 -259.6164 239.0762)" style="fill:#FFFFFF;" width="15.102" height="62.186"/>
							
								<rect x="71.323" y="323.759" transform="matrix(0.4411 -0.8975 0.8975 0.4411 -257.6426 258.7019)" style="fill:#E6434D;" width="15.102" height="24.874"/>
						</g>
						<g>
							
								<rect x="24.412" y="312.76" transform="matrix(0.4411 -0.8975 0.8975 0.4411 -263.0156 205.2764)" width="17.767" height="2.073"/>
							
								<line style="fill:none;stroke:#FFFFFF;stroke-width:1.9469;stroke-miterlimit:10;" x1="32.365" y1="313.34" x2="27.05" y2="310.727"/>
							
								<line style="fill:none;stroke:#FFFFFF;stroke-width:2.9204;stroke-linecap:round;stroke-linejoin:round;stroke-miterlimit:10;" x1="23.981" y1="316.973" x2="30.119" y2="304.482"/>
						</g>
					</g>
					<g>
						<g>
							
								<line style="fill:none;stroke:#000000;stroke-width:0.4867;stroke-miterlimit:10;" x1="82.204" y1="329.419" x2="78.939" y2="336.063"/>
							
								<line style="fill:none;stroke:#000000;stroke-width:0.4867;stroke-miterlimit:10;" x1="71.175" y1="323.999" x2="67.91" y2="330.643"/>
							
								<line style="fill:none;stroke:#000000;stroke-width:0.4867;stroke-miterlimit:10;" x1="60.146" y1="318.578" x2="56.881" y2="325.223"/>
							
								<line style="fill:none;stroke:#000000;stroke-width:0.4867;stroke-miterlimit:10;" x1="49.117" y1="313.158" x2="45.852" y2="319.802"/>
						</g>
						<g>
							
								<line style="fill:none;stroke:#000000;stroke-width:0.4867;stroke-miterlimit:10;" x1="84.124" y1="338.941" x2="80.859" y2="345.585"/>
							
								<line style="fill:none;stroke:#000000;stroke-width:0.4867;stroke-miterlimit:10;" x1="73.095" y1="333.521" x2="69.83" y2="340.165"/>
							
								<line style="fill:none;stroke:#000000;stroke-width:0.4867;stroke-miterlimit:10;" x1="62.066" y1="328.1" x2="58.8" y2="334.745"/>
							
								<line style="fill:none;stroke:#000000;stroke-width:0.4867;stroke-miterlimit:10;" x1="51.036" y1="322.68" x2="47.771" y2="329.324"/>
						</g>
					</g>
				</g>
				
					<rect x="86.706" y="341.21" transform="matrix(0.4411 -0.8975 0.8975 0.4411 -256.0696 271.9959)" style="fill:#FFFFFF;" width="7.255" height="0.74"/>
			</g>
			<polygon style="fill:#FFFFFF;" points="89.71,342.346 95.682,344.291 90.493,340.751 			"/>
		</g>
		<g>
			<g>
				<path style="fill:#E6434D;" d="M82.956,320.273h-6.018c-0.886,0-1.605-0.718-1.605-1.605v-0.802
					c0-0.886,0.718-1.605,1.605-1.605h6.018"/>
				<path style="fill:#FFFDFF;" d="M82.956,316.261h6.018c0.886,0,1.605,0.718,1.605,1.605v0.802c0,0.886-0.718,1.605-1.605,1.605
					h-6.018"/>
			</g>
			<g>
				<path style="fill:#E6434D;" d="M91.42,316.248l5.979,0.681c0.881,0.1,1.676-0.532,1.776-1.413l0.091-0.797
					c0.1-0.881-0.532-1.676-1.413-1.776l-5.979-0.681"/>
				<path style="fill:#FFFDFF;" d="M91.875,312.263l-5.979-0.681c-0.881-0.1-1.676,0.532-1.776,1.413l-0.091,0.797
					c-0.1,0.881,0.532,1.676,1.413,1.776l5.979,0.681"/>
			</g>
			<g>
				<path style="fill:#E6434D;" d="M74.112,315.525l5.814-1.552c0.856-0.229,1.365-1.108,1.137-1.964l-0.207-0.775
					c-0.229-0.856-1.108-1.365-1.964-1.137l-5.814,1.552"/>
				<path style="fill:#FFFDFF;" d="M73.078,311.649l-5.814,1.552c-0.856,0.229-1.365,1.108-1.137,1.964l0.207,0.775
					c0.229,0.856,1.108,1.365,1.964,1.137l5.814-1.552"/>
			</g>
		</g>
		<g>
			<g>
				<g>
					<path style="fill:#E6434D;" d="M300.022,331.264l-6.618,2.618c-0.975,0.386-2.077-0.092-2.463-1.067l-0.349-0.882
						c-0.386-0.975,0.092-2.077,1.067-2.463l6.618-2.618"/>
					<path style="fill:#FFFDFF;" d="M298.277,326.852l6.618-2.618c0.975-0.386,2.077,0.092,2.463,1.067l0.349,0.882
						c0.386,0.975-0.092,2.077-1.067,2.463l-6.618,2.618"/>
				</g>
				<g>
					<path style="fill:#E6434D;" d="M307.58,323.156l6.872-1.852c1.012-0.273,1.611-1.314,1.339-2.326l-0.247-0.916
						c-0.273-1.012-1.314-1.611-2.326-1.339l-6.872,1.852"/>
					<path style="fill:#FFFDFF;" d="M306.346,318.574l-6.872,1.852c-1.012,0.273-1.611,1.314-1.339,2.326l0.247,0.916
						c0.273,1.012,1.314,1.611,2.326,1.339l6.872-1.852"/>
				</g>
				<g>
					<path style="fill:#E6434D;" d="M288.23,329.89l5.719-4.236c0.842-0.624,1.019-1.812,0.396-2.655l-0.565-0.763
						c-0.624-0.842-1.812-1.019-2.655-0.396l-5.719,4.236"/>
					<path style="fill:#FFFDFF;" d="M285.407,326.077l-5.719,4.236c-0.842,0.624-1.019,1.812-0.396,2.655l0.565,0.763
						c0.624,0.842,1.812,1.019,2.655,0.396l5.719-4.236"/>
				</g>
			</g>
			<g>
				<g>
					<path style="fill:#E6434D;" d="M302.728,318.784l-6.18,3.529c-0.91,0.52-2.069,0.203-2.589-0.707l-0.471-0.824
						c-0.52-0.91-0.203-2.069,0.707-2.589l6.18-3.529"/>
					<path style="fill:#FFFDFF;" d="M300.375,314.664l6.18-3.529c0.91-0.52,2.069-0.203,2.589,0.707l0.471,0.824
						c0.52,0.91,0.203,2.069-0.707,2.589l-6.18,3.529"/>
				</g>
				<g>
					<path style="fill:#E6434D;" d="M309.061,309.686l6.54-2.806c0.963-0.413,1.409-1.529,0.996-2.492l-0.374-0.872
						c-0.413-0.963-1.529-1.409-2.492-0.996l-6.54,2.806"/>
					<path style="fill:#FFFDFF;" d="M307.19,305.326l-6.54,2.806c-0.963,0.413-1.409,1.529-0.996,2.492l0.374,0.872
						c0.413,0.963,1.529,1.409,2.492,0.996l6.54-2.806"/>
				</g>
				<g>
					<path style="fill:#E6434D;" d="M290.86,319.093l5.061-5.003c0.745-0.737,0.752-1.938,0.016-2.684l-0.667-0.675
						c-0.737-0.745-1.938-0.752-2.684-0.016l-5.061,5.003"/>
					<path style="fill:#FFFDFF;" d="M287.525,315.719l-5.061,5.003c-0.745,0.737-0.752,1.939-0.016,2.684l0.667,0.675
						c0.737,0.745,1.939,0.752,2.684,0.016l5.061-5.003"/>
				</g>
			</g>
		</g>
		<g>
			<g>
				<g>
					<path style="fill:#FFFFFF;" d="M272.417,153.782v-8.573c0-2.09,1.694-3.784,3.784-3.784h18.382c2.09,0,3.784,1.694,3.784,3.784
						v8.573H272.417z"/>
					<path style="fill:#FFFFFF;" d="M292.029,130.968c-1.173-2.492-3.7-4.222-6.637-4.222h0c-4.053,0-7.339,3.286-7.339,7.34v15.346
						h14.679V135.42h24.246v4.003h5.338v-8.007L292.029,130.968z"/>
				</g>
				<g>
					<g>
						<path style="fill:#DDDCDA;" d="M300.714,153.729c4.715,4.781,7.627,11.344,7.627,18.589v90.032
							c0,7.8-6.323,14.123-14.123,14.123h-35.307c-1.121,0-2.206-0.144-3.252-0.391c2.546,3.7,6.807,6.129,11.638,6.129h35.307
							c7.8,0,14.123-6.323,14.123-14.123v-90.032C316.727,167.15,310.132,157.787,300.714,153.729z"/>
						<path style="fill:#FFFDFF;" d="M294.219,276.473c7.8,0,14.123-6.323,14.123-14.123v-90.032c0-7.245-2.913-13.808-7.627-18.589
							c-3.211-1.384-6.749-2.153-10.467-2.153h-10.592c-14.625,0-26.48,11.856-26.48,26.48v90.032c0,2.969,0.92,5.72,2.485,7.994
							c1.046,0.247,2.131,0.391,3.252,0.391H294.219z"/>
					</g>
				</g>
			</g>
			<g>
				<path style="fill:#0EA89B;" d="M288.022,191.548c-1.347-1.952-2.741-4.018-4.371-5.747c-1.132-1.201-1.778-1.736-2.259-1.715
					c-0.688,0.031-1.042,1.197-2.005,3.184c-0.188,0.388-0.379,0.775-0.573,1.164c-5.938,11.903-14.372,24.088-14.595,37.792
					c-0.139,8.586,5.045,17.287,12.984,20.778c0.915,0.402,1.834,0.7,2.751,0.917c10.112,2.391,19.998-6.064,21.301-16.255
					C303.077,217.431,295.865,202.912,288.022,191.548z"/>
				<polygon style="fill:#FFFDFF;" points="297.664,217.244 287.736,217.244 287.736,207.316 278.127,207.316 278.127,217.244 
					268.199,217.244 268.092,226.853 278.127,226.853 278.127,236.782 287.736,236.782 287.736,226.853 297.664,226.853 				"/>
			</g>
		</g>
		<g>
			<g>
				<path style="fill:#FFFFFF;" d="M322.706,191.019l0.793-0.361c3.433-1.562,7.487-0.14,9.192,3.224l10.686,21.088l1.314-18.976
					l0.163-30.354c0.017-3.242,2.659-5.855,5.901-5.838l1.342,0.007c3.242,0.017,5.855,2.659,5.838,5.901l-0.144,26.88
					c0.411-0.027,0.83-0.048,1.259-0.064l1.648-32.412c0.179-3.522,3.097-6.28,6.623-6.261l0.723,0.004
					c3.819,0.021,6.823,3.271,6.543,7.08l-2.419,32.871c0.278,0.062,0.561,0.13,0.842,0.197l3.108-25.248
					c0.5-4.063,4.561-6.679,8.467-5.454c3.168,0.993,5.093,4.198,4.481,7.462l-5.036,26.877c0.128,0.054,0.254,0.105,0.383,0.159
					l6.093-13.811c1.367-3.1,5.149-4.289,8.045-2.53l0.422,0.257c2.379,1.445,3.339,4.417,2.255,6.98
					c-2.027,4.793-3.862,9.788-6.161,14.443c-3.05,6.177-4.519,13.283-6.201,20.055c-1.749,7.037-4.609,13.419-7.077,20.196
					c-2.129,5.846-2.483,12.249-2.622,18.409c-0.116,5.143-0.685,10.8,0.304,15.887l-47.292-0.254
					c0.344-4.761,0.689-9.522,1.034-14.283c0.736-10.163,2.736-20.067,0.088-30.16c-0.72-2.746-2.278-5.218-3.425-7.793
					c-1.482-3.326-3.134-6.594-4.522-9.96c-2.079-5.043-4.159-10.086-6.238-15.13C317.671,196.605,319.259,192.588,322.706,191.019z
					"/>
				<path style="fill:#FFFFFF;" d="M334.807,283.158l41.887,0.225c3.998,0.021,7.256-3.202,7.277-7.2l0.035-6.458
					c0.021-3.998-3.202-7.256-7.2-7.277l-41.887-0.225c-3.998-0.021-7.256,3.202-7.277,7.2l-0.035,6.458
					C327.586,279.879,330.809,283.137,334.807,283.158z"/>
			</g>
			<g>
				<path style="fill:#DDDCDA;" d="M380.245,249.122c-1.641,0.749-3.401,1.153-5.176,1.388c-1.778,0.229-3.591,0.263-5.393,0.078
					c-1.801-0.2-3.585-0.659-5.268-1.358c-1.674-0.727-3.217-1.782-4.406-3.124c1.672,0.686,3.255,1.266,4.898,1.687
					c1.65,0.388,3.306,0.662,4.988,0.86c1.685,0.169,3.385,0.286,5.106,0.346L380.245,249.122z"/>
			</g>
		</g>
		<g>
			<g>
				<path style="fill:#FFFFFF;" d="M395.821,213.329l0.799-0.345c3.462-1.496,7.488,0.004,9.128,3.401l10.278,21.29l1.679-18.947
					l0.748-30.345c0.08-3.241,2.772-5.803,6.013-5.723l1.341,0.033c3.241,0.08,5.803,2.772,5.723,6.013l-0.663,26.872
					c0.411-0.019,0.831-0.032,1.26-0.04l2.272-32.374c0.247-3.518,3.217-6.219,6.742-6.132l0.723,0.018
					c3.818,0.094,6.759,3.402,6.405,7.205l-3.052,32.818c0.277,0.067,0.558,0.141,0.838,0.213l3.594-25.183
					c0.578-4.053,4.689-6.589,8.571-5.289c3.148,1.054,5.011,4.296,4.337,7.547l-5.553,26.775c0.127,0.056,0.252,0.11,0.38,0.167
					l6.358-13.691c1.427-3.073,5.231-4.189,8.092-2.375l0.417,0.265c2.351,1.491,3.253,4.48,2.12,7.023
					c-2.119,4.753-4.05,9.712-6.438,14.321c-3.169,6.117-4.774,13.194-6.587,19.931c-1.884,7.002-4.867,13.328-7.465,20.056
					c-2.241,5.804-2.718,12.199-2.976,18.355c-0.215,5.14-0.893,10.784-0.003,15.89l-47.278-1.166
					c0.436-4.753,0.872-9.507,1.309-14.26c0.932-10.147,3.122-20.01,0.67-30.153c-0.667-2.76-2.177-5.261-3.274-7.858
					c-1.417-3.354-3.007-6.653-4.33-10.046c-1.982-5.082-3.963-10.165-5.945-15.247
					C390.679,218.817,392.343,214.831,395.821,213.329z"/>
				<path style="fill:#FFFFFF;" d="M407.801,305.725l38.558,0.951c4.912,0.121,8.993-3.763,9.114-8.675l0.077-3.14
					c0.121-4.912-3.763-8.993-8.675-9.114l-38.558-0.951c-4.912-0.121-8.993,3.763-9.114,8.675l-0.077,3.14
					C399.004,301.524,402.888,305.604,407.801,305.725z"/>
			</g>
			<g>
				<path style="fill:#DDDCDA;" d="M453.255,268.591c-1.641,0.749-3.401,1.153-5.176,1.388c-1.778,0.228-3.591,0.263-5.393,0.078
					c-1.801-0.2-3.585-0.659-5.268-1.358c-1.674-0.727-3.217-1.782-4.406-3.124c1.672,0.686,3.255,1.266,4.898,1.687
					c1.65,0.388,3.306,0.662,4.988,0.86c1.685,0.169,3.385,0.286,5.106,0.346L453.255,268.591z"/>
			</g>
		</g>
		<g>
			<rect x="271.275" y="259.735" style="fill:#83DDD5;" width="64.531" height="29.204"/>
			<g>
				<g>
					<g>
						<path style="fill:#E6434D;" d="M277.777,267.297l0.025-4.67c0.004-0.688-0.551-1.248-1.239-1.252l-0.623-0.003
							c-0.688-0.004-1.248,0.551-1.252,1.239l-0.025,4.67"/>
						<path style="fill:#FFFDFF;" d="M274.664,267.28l-0.025,4.67c-0.004,0.688,0.551,1.248,1.239,1.252l0.623,0.003
							c0.688,0.004,1.248-0.551,1.252-1.239l0.025-4.67"/>
					</g>
					<g>
						<path style="fill:#E6434D;" d="M284.607,267.297l0.025-4.67c0.004-0.688-0.551-1.248-1.239-1.252l-0.623-0.003
							c-0.688-0.004-1.248,0.551-1.252,1.239l-0.025,4.67"/>
						<path style="fill:#FFFDFF;" d="M281.494,267.28l-0.025,4.67c-0.004,0.688,0.551,1.248,1.239,1.252l0.623,0.003
							c0.688,0.004,1.248-0.551,1.252-1.239l0.025-4.67"/>
					</g>
					<g>
						<path style="fill:#E6434D;" d="M291.437,267.297l0.025-4.67c0.004-0.688-0.551-1.248-1.239-1.252l-0.623-0.003
							c-0.688-0.004-1.248,0.551-1.252,1.239l-0.025,4.67"/>
						<path style="fill:#FFFDFF;" d="M288.324,267.28l-0.025,4.67c-0.004,0.688,0.551,1.248,1.239,1.252l0.623,0.003
							c0.688,0.004,1.248-0.551,1.252-1.239l0.025-4.67"/>
					</g>
					<g>
						<path style="fill:#E6434D;" d="M298.267,267.297l0.025-4.67c0.004-0.688-0.551-1.248-1.239-1.252l-0.623-0.003
							c-0.688-0.004-1.248,0.551-1.252,1.239l-0.025,4.67"/>
						<path style="fill:#FFFDFF;" d="M295.154,267.28l-0.025,4.67c-0.004,0.688,0.551,1.248,1.239,1.252l0.623,0.003
							c0.688,0.004,1.248-0.551,1.252-1.239l0.025-4.67"/>
					</g>
					<g>
						<path style="fill:#E6434D;" d="M305.097,267.297l0.025-4.67c0.004-0.688-0.551-1.248-1.239-1.252l-0.623-0.003
							c-0.688-0.004-1.248,0.551-1.252,1.239l-0.025,4.67"/>
						<path style="fill:#FFFDFF;" d="M301.984,267.28l-0.025,4.67c-0.004,0.688,0.551,1.248,1.239,1.252l0.623,0.003
							c0.688,0.004,1.248-0.551,1.252-1.239l0.025-4.67"/>
					</g>
					<g>
						<path style="fill:#E6434D;" d="M311.927,267.297l0.025-4.67c0.004-0.688-0.551-1.248-1.239-1.252l-0.623-0.003
							c-0.688-0.004-1.248,0.551-1.252,1.239l-0.025,4.67"/>
						<path style="fill:#FFFDFF;" d="M308.814,267.28l-0.025,4.67c-0.004,0.688,0.551,1.248,1.239,1.252l0.623,0.003
							c0.688,0.004,1.248-0.551,1.252-1.239l0.025-4.67"/>
					</g>
					<g>
						<path style="fill:#E6434D;" d="M318.757,267.297l0.025-4.67c0.004-0.688-0.551-1.248-1.239-1.252l-0.623-0.003
							c-0.688-0.004-1.248,0.551-1.252,1.239l-0.025,4.67"/>
						<path style="fill:#FFFDFF;" d="M315.644,267.28l-0.025,4.67c-0.004,0.688,0.551,1.248,1.239,1.252l0.623,0.003
							c0.688,0.004,1.248-0.551,1.252-1.239l0.025-4.67"/>
					</g>
					<g>
						<path style="fill:#E6434D;" d="M325.587,267.297l0.025-4.67c0.004-0.688-0.551-1.248-1.239-1.252l-0.623-0.003
							c-0.688-0.004-1.248,0.551-1.252,1.239l-0.025,4.67"/>
						<path style="fill:#FFFDFF;" d="M322.474,267.28l-0.025,4.67c-0.004,0.688,0.551,1.248,1.239,1.252l0.623,0.003
							c0.688,0.004,1.248-0.551,1.252-1.239l0.025-4.67"/>
					</g>
					<g>
						<path style="fill:#E6434D;" d="M332.417,267.297l0.025-4.67c0.004-0.688-0.551-1.248-1.239-1.252l-0.623-0.003
							c-0.688-0.004-1.248,0.551-1.252,1.239l-0.025,4.67"/>
						<path style="fill:#FFFDFF;" d="M329.304,267.28l-0.025,4.67c-0.004,0.688,0.551,1.248,1.239,1.252l0.623,0.003
							c0.688,0.004,1.248-0.551,1.252-1.239l0.025-4.67"/>
					</g>
				</g>
				<g>
					<g>
						<path style="fill:#E6434D;" d="M277.777,280.957l0.025-4.67c0.004-0.688-0.551-1.248-1.239-1.252l-0.623-0.003
							c-0.688-0.004-1.248,0.551-1.252,1.239l-0.025,4.67"/>
						<path style="fill:#FFFDFF;" d="M274.664,280.94l-0.025,4.67c-0.004,0.688,0.551,1.248,1.239,1.252l0.623,0.003
							c0.688,0.004,1.248-0.551,1.252-1.239l0.025-4.67"/>
					</g>
					<g>
						<path style="fill:#E6434D;" d="M284.607,280.957l0.025-4.67c0.004-0.688-0.551-1.248-1.239-1.252l-0.623-0.003
							c-0.688-0.004-1.248,0.551-1.252,1.239l-0.025,4.67"/>
						<path style="fill:#FFFDFF;" d="M281.494,280.94l-0.025,4.67c-0.004,0.688,0.551,1.248,1.239,1.252l0.623,0.003
							c0.688,0.004,1.248-0.551,1.252-1.239l0.025-4.67"/>
					</g>
					<g>
						<path style="fill:#E6434D;" d="M291.437,280.957l0.025-4.67c0.004-0.688-0.551-1.248-1.239-1.252l-0.623-0.003
							c-0.688-0.004-1.248,0.551-1.252,1.239l-0.025,4.67"/>
						<path style="fill:#FFFDFF;" d="M288.324,280.94l-0.025,4.67c-0.004,0.688,0.551,1.248,1.239,1.252l0.623,0.003
							c0.688,0.004,1.248-0.551,1.252-1.239l0.025-4.67"/>
					</g>
					<g>
						<path style="fill:#E6434D;" d="M298.267,280.957l0.025-4.67c0.004-0.688-0.551-1.248-1.239-1.252l-0.623-0.003
							c-0.688-0.004-1.248,0.551-1.252,1.239l-0.025,4.67"/>
						<path style="fill:#FFFDFF;" d="M295.154,280.94l-0.025,4.67c-0.004,0.688,0.551,1.248,1.239,1.252l0.623,0.003
							c0.688,0.004,1.248-0.551,1.252-1.239l0.025-4.67"/>
					</g>
					<g>
						<path style="fill:#E6434D;" d="M305.097,280.957l0.025-4.67c0.004-0.688-0.551-1.248-1.239-1.252l-0.623-0.003
							c-0.688-0.004-1.248,0.551-1.252,1.239l-0.025,4.67"/>
						<path style="fill:#FFFDFF;" d="M301.984,280.94l-0.025,4.67c-0.004,0.688,0.551,1.248,1.239,1.252l0.623,0.003
							c0.688,0.004,1.248-0.551,1.252-1.239l0.025-4.67"/>
					</g>
					<g>
						<path style="fill:#E6434D;" d="M311.927,280.957l0.025-4.67c0.004-0.688-0.551-1.248-1.239-1.252l-0.623-0.003
							c-0.688-0.004-1.248,0.551-1.252,1.239l-0.025,4.67"/>
						<path style="fill:#FFFDFF;" d="M308.814,280.94l-0.025,4.67c-0.004,0.688,0.551,1.248,1.239,1.252l0.623,0.003
							c0.688,0.004,1.248-0.551,1.252-1.239l0.025-4.67"/>
					</g>
					<g>
						<path style="fill:#E6434D;" d="M318.757,280.957l0.025-4.67c0.004-0.688-0.551-1.248-1.239-1.252l-0.623-0.003
							c-0.688-0.004-1.248,0.551-1.252,1.239l-0.025,4.67"/>
						<path style="fill:#FFFDFF;" d="M315.644,280.94l-0.025,4.67c-0.004,0.688,0.551,1.248,1.239,1.252l0.623,0.003
							c0.688,0.004,1.248-0.551,1.252-1.239l0.025-4.67"/>
					</g>
					<g>
						<path style="fill:#E6434D;" d="M325.587,280.957l0.025-4.67c0.004-0.688-0.551-1.248-1.239-1.252l-0.623-0.003
							c-0.688-0.004-1.248,0.551-1.252,1.239l-0.025,4.67"/>
						<path style="fill:#FFFDFF;" d="M322.474,280.94l-0.025,4.67c-0.004,0.688,0.551,1.248,1.239,1.252l0.623,0.003
							c0.688,0.004,1.248-0.551,1.252-1.239l0.025-4.67"/>
					</g>
					<g>
						<path style="fill:#E6434D;" d="M332.417,280.957l0.025-4.67c0.004-0.688-0.551-1.248-1.239-1.252l-0.623-0.003
							c-0.688-0.004-1.248,0.551-1.252,1.239l-0.025,4.67"/>
						<path style="fill:#FFFDFF;" d="M329.304,280.94l-0.025,4.67c-0.004,0.688,0.551,1.248,1.239,1.252l0.623,0.003
							c0.688,0.004,1.248-0.551,1.252-1.239l0.025-4.67"/>
					</g>
				</g>
			</g>
		</g>
		<g>
			<g>
				<path style="fill:#FFFFFF;" d="M239.644,249.122c-4.809,0.846-9.621,1.644-14.411,2.566c-4.796,0.877-9.581,1.805-14.345,2.803
					c-4.755,1.029-9.511,2.073-14.143,3.449c-0.572,0.173-1.188,0.328-1.674,0.541c-0.253,0.106-0.525,0.182-0.764,0.308
					l-0.697,0.401c-0.878,0.588-1.591,1.353-1.998,2.296c-0.376,0.958-0.465,2.035-0.383,3.128c0.164,1.094,0.4,2.205,0.869,3.267
					c0.845,2.146,2.123,4.163,3.576,6.035c1.461,1.873,3.104,3.618,4.857,5.253c3.519,3.26,7.454,6.091,11.614,8.543
					c8.34,4.885,17.518,8.376,27.033,10.554c-9.656-1.433-19.15-4.474-27.786-9.235c-4.336-2.344-8.395-5.215-12.107-8.504
					c-1.844-1.662-3.554-3.481-5.11-5.441c-1.543-1.967-2.93-4.099-3.887-6.493l-0.344-0.903l-0.261-0.944
					c-0.204-0.617-0.253-1.294-0.367-1.944c-0.098-1.336,0.011-2.737,0.548-4.058c0.567-1.315,1.584-2.388,2.734-3.135l0.893-0.504
					c0.302-0.154,0.621-0.248,0.932-0.373c0.64-0.266,1.216-0.385,1.814-0.557c4.753-1.3,9.546-2.309,14.363-3.168
					C220.226,251.272,229.92,250.024,239.644,249.122z"/>
			</g>
			<g>
				<path style="fill:#2DC5B8;" d="M233.176,260.513c-4.883,5.253-12.558,7.599-15.474,14.468
					c-1.355,3.192,3.739,6.959,5.905,10.562c3.09,5.139,5.08,11.047,4.574,17.107c-0.744,8.8-7.033,14.454-11.117,21.319
					c-0.249,0.419,7.394,3.832,8.044,4.011c4.128,1.134,8.45,1.515,12.703,1.842c4.392,0.338,8.808,0.328,13.206,0.121
					c2.626-0.123,15.812,0.237,17.138-1.788c0.02-0.03,23.5-35.889-3.397-63.995c0,0-11.851-14.268-24.927-15.509
					c-2.216-0.204-3.113,6.076-3.724,7.469C235.361,257.821,234.349,259.251,233.176,260.513z"/>
				<path style="fill:none;stroke:#FFFFFF;stroke-width:0.9735;stroke-miterlimit:10;stroke-dasharray:2.9204;" d="M241.489,253.371
					c-0.241,0.755-0.466,1.616-0.594,2.104c-0.257,0.98-0.459,1.754-0.751,2.418c-0.895,2.04-2.119,3.878-3.739,5.622
					c-2.19,2.355-4.693,4.098-7.115,5.783c-3.153,2.195-5.901,4.107-7.296,6.897c0.412,0.781,1.579,2.157,2.315,3.025
					c1.082,1.276,2.201,2.596,3.076,4.051c3.927,6.532,5.722,13.36,5.189,19.745c-0.637,7.536-4.613,13.045-8.12,17.905
					c-0.367,0.508-0.727,1.009-1.08,1.504c1.271,0.59,2.51,1.136,3.04,1.34c3.623,0.979,7.461,1.331,11.736,1.661
					c3.844,0.295,7.986,0.332,12.661,0.113c0.521-0.024,1.43-0.033,2.574-0.042c2.932-0.022,7.84-0.058,10.845-0.52
					c0.334-0.051,0.595-0.101,0.797-0.144"/>
			</g>
			<g>
				<path style="fill:#FFFFFF;" d="M217.722,274.801c-4.809,0.846-9.621,1.644-14.411,2.566c-4.796,0.877-9.581,1.805-14.345,2.803
					c-4.755,1.029-9.511,2.073-14.143,3.449c-0.572,0.173-1.188,0.328-1.674,0.541c-0.253,0.106-0.525,0.182-0.764,0.308
					l-0.697,0.401c-0.878,0.588-1.591,1.353-1.998,2.296c-0.376,0.958-0.465,2.035-0.383,3.128c0.164,1.094,0.4,2.205,0.869,3.267
					c0.845,2.146,2.123,4.163,3.576,6.035c1.461,1.873,3.104,3.618,4.857,5.253c3.519,3.26,7.454,6.091,11.614,8.543
					c8.34,4.885,17.518,8.376,27.033,10.554c-9.656-1.433-19.15-4.474-27.786-9.235c-4.336-2.344-8.395-5.215-12.107-8.504
					c-1.844-1.662-3.554-3.481-5.11-5.441c-1.543-1.967-2.93-4.099-3.887-6.493l-0.344-0.903l-0.261-0.944
					c-0.204-0.617-0.253-1.294-0.367-1.944c-0.098-1.336,0.011-2.737,0.548-4.058c0.567-1.315,1.584-2.388,2.734-3.135l0.893-0.504
					c0.302-0.154,0.621-0.248,0.932-0.373c0.64-0.266,1.216-0.385,1.814-0.557c4.753-1.3,9.546-2.309,14.363-3.168
					C198.304,276.951,207.998,275.703,217.722,274.801z"/>
			</g>
		</g>
		<g>
			<g>
				<path style="fill:#0EA89B;" d="M368.898,236.093l-15.062-3.171c-3.997-0.841-6.554-4.763-5.713-8.76l3.956-18.79
					c0.841-3.997,4.763-6.554,8.76-5.713l15.062,3.171c3.997,0.841,6.554,4.763,5.713,8.76l-3.956,18.79
					C376.817,234.376,372.895,236.934,368.898,236.093z"/>
			</g>
			<g>
				<g>
					<circle style="fill:#83DDD5;" cx="359.028" cy="204.247" r="1.947"/>
				</g>
				<g>
					<circle style="fill:#83DDD5;" cx="361.949" cy="211.061" r="1.947"/>
				</g>
				<g>
					<circle style="fill:#83DDD5;" cx="365.842" cy="217.876" r="1.947"/>
				</g>
				<g>
					<circle style="fill:#83DDD5;" cx="369.736" cy="223.716" r="1.947"/>
				</g>
				<g>
					<circle style="fill:#83DDD5;" cx="370.71" cy="231.504" r="1.947"/>
				</g>
				<g>
					<circle style="fill:#83DDD5;" cx="377.524" cy="210.088" r="1.947"/>
				</g>
				<g>
					<circle style="fill:#83DDD5;" cx="367.789" cy="207.168" r="1.947"/>
				</g>
				<g>
					<circle style="fill:#83DDD5;" cx="370.71" cy="213.008" r="1.947"/>
				</g>
				<g>
					<circle style="fill:#83DDD5;" cx="374.604" cy="219.823" r="1.947"/>
				</g>
				<g>
					<circle style="fill:#83DDD5;" cx="355.134" cy="213.982" r="1.947"/>
				</g>
				<g>
					<circle style="fill:#83DDD5;" cx="359.028" cy="220.796" r="1.947"/>
				</g>
				<g>
					<circle style="fill:#83DDD5;" cx="361.949" cy="228.584" r="1.947"/>
				</g>
				<g>
					<circle style="fill:#83DDD5;" cx="353.187" cy="224.69" r="1.947"/>
				</g>
			</g>
		</g>
		<g>
			<g>
				<path style="fill:#0EA89B;" d="M442.882,260.429l-15.062-3.171c-3.997-0.841-6.554-4.763-5.713-8.76l3.956-18.79
					c0.841-3.997,4.763-6.554,8.76-5.713l15.062,3.171c3.997,0.841,6.554,4.763,5.713,8.76l-3.956,18.79
					C450.8,258.713,446.878,261.271,442.882,260.429z"/>
			</g>
			<g>
				<g>
					<circle style="fill:#83DDD5;" cx="433.012" cy="228.584" r="1.947"/>
				</g>
				<g>
					<circle style="fill:#83DDD5;" cx="435.932" cy="235.398" r="1.947"/>
				</g>
				<g>
					<circle style="fill:#83DDD5;" cx="439.826" cy="242.212" r="1.947"/>
				</g>
				<g>
					<circle style="fill:#83DDD5;" cx="443.72" cy="248.053" r="1.947"/>
				</g>
				<g>
					<circle style="fill:#83DDD5;" cx="444.693" cy="255.841" r="1.947"/>
				</g>
				<g>
					<circle style="fill:#83DDD5;" cx="451.507" cy="234.425" r="1.947"/>
				</g>
				<g>
					<circle style="fill:#83DDD5;" cx="441.773" cy="231.504" r="1.947"/>
				</g>
				<g>
					<circle style="fill:#83DDD5;" cx="444.693" cy="237.345" r="1.947"/>
				</g>
				<g>
					<circle style="fill:#83DDD5;" cx="448.587" cy="244.159" r="1.947"/>
				</g>
				<g>
					<circle style="fill:#83DDD5;" cx="429.118" cy="238.318" r="1.947"/>
				</g>
				<g>
					<circle style="fill:#83DDD5;" cx="433.012" cy="245.133" r="1.947"/>
				</g>
				<g>
					<circle style="fill:#83DDD5;" cx="435.932" cy="252.92" r="1.947"/>
				</g>
				<g>
					<circle style="fill:#83DDD5;" cx="427.171" cy="249.027" r="1.947"/>
				</g>
			</g>
		</g>
		<g>
			<g>
				
					<path style="fill:none;stroke:#E6434D;stroke-width:2.9204;stroke-linecap:round;stroke-linejoin:round;stroke-miterlimit:10;" d="
					M397.185,319.81c9.906-6.876,19.79-13.786,29.723-20.623c0.989-0.678,2.975,7.382,3.183,8.23"/>
				
					<path style="fill:none;stroke:#E6434D;stroke-width:2.9204;stroke-linecap:round;stroke-linejoin:round;stroke-miterlimit:10;" d="
					M337.055,307.275c9.906-6.876,19.79-13.786,29.723-20.623c0.989-0.678,2.975,7.382,3.183,8.23"/>
			</g>
			<path style="fill:#FFFDFF;" d="M361.269,327.67c0.084,0.029,0.168,0.062,0.251,0.1"/>
			<path style="fill:#FFFDFF;" d="M362.778,318.894c-11.188-2.399-21.688-6.68-29.128-14.284c-0.362,6.254-1.3,12.554-0.233,18.792
				c1.271,7.431,7.292,19.185,16.748,16.862c4.329-1.064,5.549-7.917,7.853-11.023c1.157-1.56,2.255-1.91,3.251-1.572l0.251,0.1
				c1.854,0.854,3.333,4.016,4.153,5.949c2.416,5.7,5.127,12.108,10.88,15.177c6.191,3.303,13.733,2.108,20.092-0.144
				c3.604-1.277,2.631-2.809,2.631-6.601c0-6.173,0-12.346,0-18.519l0-1.732C388.412,321.9,375.172,321.551,362.778,318.894"/>
			<path style="fill:#E6434D;" d="M361.685,318.55c-10.471-2.57-21.012-6.882-28.679-14.07l5.484-3.199
				c0,0,13.482,17.596,62.385,15.768l-0.457,5.027C400.418,322.076,381.174,323.333,361.685,318.55"/>
			<g>
				<path style="fill:#0EA89B;" d="M357.98,327.164c-1.722,1.515-3.116,2.342-4.074,4.493c-0.881,1.979-1.348,4.279-3.16,5.673
					c-1.643,1.264-3.935,1.488-5.921,0.895s-3.689-1.919-5.058-3.474c-3.04-3.452-4.568-8.029-5.073-12.601
					c-0.505-4.572-0.06-9.191,0.422-13.766c6.877,6.136,15.502,10.29,24.587,11.84c0.03,0.005-0.45,4.771-0.629,5.29
					C358.816,326.268,358.428,326.769,357.98,327.164z"/>
				<path style="fill:#0EA89B;" d="M365.819,328.802c0.025,0.194,0.053,0.338,0.085,0.417c0.854,2.132,2.213,4.221,3.235,6.292
					c2.042,4.135,4.311,8.63,8.413,11.081c5.045,3.015,11.47,1.769,17.119,0.15c0.799-0.229,1.666-0.514,2.112-1.215
					c0.352-0.554,0.364-1.251,0.364-1.907c0-6.575,0-13.15,0-19.725c-10.346,0.232-20.717-0.603-30.893-2.488
					C365.656,321.407,365.598,327.084,365.819,328.802z"/>
				<g>
					<g>
						<path style="fill:#FFFDFF;" d="M387.253,324.864c1.181-0.171,2.392-0.078,3.57,0.196c1.178,0.275,2.332,0.78,3.315,1.57
							c0.985,0.791,1.678,1.962,1.921,3.181c0.307,1.224,0.066,2.465-0.275,3.585c-0.057-1.19-0.052-2.346-0.458-3.384
							c-0.36-1.031-0.952-1.959-1.811-2.634c-0.837-0.695-1.85-1.193-2.911-1.594C389.537,325.395,388.416,325.096,387.253,324.864z
							"/>
					</g>
					<g>
						<path style="fill:#FFFDFF;" d="M352.35,319.434c0.727-0.081,1.456,0.041,2.152,0.268c0.699,0.226,1.359,0.598,1.938,1.089
							c0.572,0.499,1.02,1.161,1.262,1.88c0.275,0.714,0.237,1.498,0.076,2.192c-0.245-0.692-0.414-1.334-0.77-1.883
							c-0.337-0.546-0.719-1.049-1.212-1.46C354.832,320.673,353.643,320.065,352.35,319.434z"/>
					</g>
				</g>
			</g>
		</g>
		<g>
			<g>
				<g>
					<path style="fill:#FFFFFF;" d="M467.753,308.724l5.083,6.213l-40.193,32.887c-1.716,1.404-4.244,1.151-5.648-0.565l0,0
						c-1.404-1.716-1.151-4.244,0.565-5.648L467.753,308.724z"/>
					<path style="fill:#E6434D;" d="M462.791,313.415l4.464,5.456l-35.3,28.883c-1.507,1.233-3.728,1.011-4.96-0.496l0,0
						c-1.233-1.507-1.011-3.727,0.496-4.96L462.791,313.415z"/>
				</g>
				
					<rect x="468.67" y="305.895" transform="matrix(0.7739 -0.6333 0.6333 0.7739 -90.7347 368.5598)" style="fill:#E6434D;" width="4.378" height="10.946"/>
			</g>
			<g>
				<polygon style="fill:#FFFFFF;" points="437.674,343.076 434.958,339.559 456.861,321.55 459.932,324.864 				"/>
				<g>
					
						<line style="fill:none;stroke:#000000;stroke-width:0.2434;stroke-linecap:round;stroke-linejoin:round;stroke-miterlimit:10;" x1="436.419" y1="340.046" x2="442.259" y2="335.178"/>
					
						<line style="fill:none;stroke:#000000;stroke-width:0.2434;stroke-linecap:round;stroke-linejoin:round;stroke-miterlimit:10;" x1="437.392" y1="341.019" x2="443.233" y2="336.152"/>
					
						<line style="fill:none;stroke:#000000;stroke-width:0.2434;stroke-linecap:round;stroke-linejoin:round;stroke-miterlimit:10;" x1="451.994" y1="329.337" x2="457.835" y2="324.47"/>
				</g>
			</g>
		</g>
	</g>
</g>
</svg>
